<svg width="12" height="13" viewBox="0 0 12 13" fill="none" xmlns="http://www.w3.org/2000/svg">
<path d="M6 0.932495C2.68548 0.932495 0 3.61294 0 6.92124C0 10.2295 2.68548 12.91 6 12.91C9.31452 12.91 12 10.2295 12 6.92124C12 3.61294 9.31452 0.932495 6 0.932495ZM7.38145 9.38677L5.24758 7.83887C5.17258 7.78333 5.12903 7.69639 5.12903 7.60463V3.5405C5.12903 3.38112 5.25968 3.25072 5.41935 3.25072H6.58065C6.74032 3.25072 6.87097 3.38112 6.87097 3.5405V6.8657L8.40726 7.98134C8.5379 8.07552 8.56452 8.25663 8.47016 8.38703L7.7879 9.32398C7.69355 9.45197 7.5121 9.48094 7.38145 9.38677Z" fill="#CE89FF"/>
</svg>
