<svg width="24" height="21" viewBox="0 0 24 21" fill="none" xmlns="http://www.w3.org/2000/svg">
<path d="M12 1.82269C10.6038 0.581429 8.77392 -0.0703905 6.90015 0.00603565C5.02637 0.0824618 3.25672 0.881095 1.96804 2.23186C0.67937 3.58263 -0.026497 5.3788 0.000761073 7.23786C0.0280191 9.09693 0.786248 10.872 2.11398 12.1851L10.3042 20.3037C10.754 20.7496 11.364 21 12 21C12.636 21 13.246 20.7496 13.6958 20.3037L21.886 12.1851C23.2138 10.872 23.972 9.09693 23.9992 7.23786C24.0265 5.3788 23.3206 3.58263 22.032 2.23186C20.7433 0.881095 18.9736 0.0824618 17.0999 0.00603565C15.2261 -0.0703905 13.3962 0.581429 12 1.82269ZM10.5944 3.77745L11.1521 4.32916C11.377 4.55206 11.682 4.67729 12 4.67729C12.318 4.67729 12.623 4.55206 12.8479 4.32916L13.4056 3.77745C13.8481 3.32319 14.3775 2.96086 14.9628 2.7116C15.5481 2.46233 16.1776 2.33113 16.8146 2.32564C17.4515 2.32016 18.0832 2.44049 18.6728 2.67963C19.2624 2.91878 19.798 3.27193 20.2484 3.7185C20.6989 4.16506 21.0551 4.69609 21.2963 5.2806C21.5375 5.86511 21.6589 6.49139 21.6534 7.1229C21.6478 7.75441 21.5155 8.37851 21.2641 8.95877C21.0126 9.53904 20.6472 10.0639 20.189 10.5026L12 18.6225L3.81102 10.5026C2.93716 9.60557 2.45362 8.40417 2.46455 7.15713C2.47548 5.9101 2.98 4.7172 3.86946 3.83538C4.75892 2.95356 5.96214 2.45337 7.21997 2.44253C8.47781 2.43169 9.68961 2.91108 10.5944 3.77745Z" fill="white"/>
</svg>
