<svg width="14" height="14" viewBox="0 0 14 14" fill="none" xmlns="http://www.w3.org/2000/svg">
<path fill-rule="evenodd" clip-rule="evenodd" d="M8.99227 1.5873C8.99229 0.710671 9.75189 1.82413e-05 10.6889 3.5114e-10C11.6259 -1.82406e-05 12.3855 0.710645 12.3855 1.5873C12.3855 2.46393 11.6259 3.17458 10.6889 3.1746C9.75187 3.17462 8.99226 2.46396 8.99227 1.5873ZM0.678835 2.38095C0.678835 1.94263 1.05864 1.5873 1.52715 1.5873C2.52248 1.5873 4.5353 1.75243 6.31326 2.12207C7.19785 2.30598 8.08148 2.55182 8.76351 2.88097C8.87369 2.93414 8.98325 2.99167 9.08983 3.0541C9.10073 3.06023 9.11151 3.06661 9.12216 3.07325C9.33306 3.19951 9.53119 3.34544 9.69787 3.51538C9.94156 3.76385 10.143 4.09187 10.1754 4.49067C10.2068 4.58179 10.2772 4.6598 10.424 4.72549C10.6116 4.80944 10.8931 4.85127 11.2052 4.80956C11.8721 4.72043 12.2159 4.36646 12.2159 3.96825C12.2159 3.52993 12.5957 3.1746 13.0642 3.1746C13.5327 3.1746 13.9125 3.52993 13.9125 3.96825C13.9125 5.47481 12.5596 6.23196 11.4451 6.38091C10.8665 6.45825 10.236 6.40088 9.69197 6.15745C9.6321 6.13066 9.57312 6.10147 9.51534 6.06987C9.46723 6.13423 9.41749 6.19873 9.36653 6.26311C9.23853 6.42484 9.0981 6.59174 8.94876 6.76097C9.27445 6.97567 9.55282 7.23386 9.74419 7.55506C10.0633 8.09067 10.0637 8.66751 9.893 9.22606C9.72937 9.76166 9.39566 10.3291 8.96647 10.9314C8.77113 11.2054 8.54845 11.497 8.30061 11.8072C8.60671 11.927 8.82179 12.2098 8.82179 12.5397C8.82179 12.978 8.44199 13.3333 7.97348 13.3333H6.61692C6.29082 13.3333 5.99359 13.1585 5.85233 12.8835C5.71107 12.6085 5.75079 12.2821 5.95451 12.0439C6.63007 11.2539 7.16254 10.6013 7.55486 10.0508C7.9529 9.49228 8.17075 9.08755 8.26171 8.78982C8.34567 8.51503 8.30368 8.39743 8.26224 8.32787C8.21216 8.24382 8.0902 8.11418 7.79597 7.95383C7.23435 8.49174 6.64689 9.0014 6.14597 9.38381C5.89386 9.57627 5.64887 9.74789 5.43099 9.87582C5.32264 9.93944 5.2052 10.0016 5.08593 10.0504C4.98509 10.0916 4.8002 10.1587 4.58107 10.1587C3.96161 10.1587 3.35447 9.84614 2.83162 9.50691C2.50833 9.29715 2.1607 9.03829 1.79062 8.74198L1.60725 9.08509C1.39773 9.47714 0.888169 9.63605 0.469121 9.44002C0.0500733 9.244 -0.119779 8.76727 0.0897445 8.37523L0.768394 7.10539C0.887439 6.88264 1.11134 6.72508 1.3731 6.67986C1.63487 6.63464 1.90415 6.70699 2.10037 6.87527C2.78319 7.46086 3.3417 7.9062 3.79848 8.20257C4.15149 8.43161 4.37092 8.52199 4.48833 8.55469C4.50057 8.54788 4.51415 8.54014 4.5291 8.53137C4.66379 8.45228 4.84826 8.32581 5.07333 8.15399C5.45086 7.86577 5.90125 7.48179 6.35427 7.06C6.32934 7.03473 6.30527 7.00904 6.28213 6.98293C6.11536 6.79475 5.98204 6.5689 5.92551 6.30282C5.86874 6.03563 5.90078 5.78135 5.97893 5.55338C6.12256 5.13435 6.44332 4.75034 6.76808 4.40897C6.89442 4.27617 7.03587 4.13548 7.18938 3.98713C6.82142 3.87206 6.40059 3.76625 5.94521 3.67158C4.28752 3.32694 2.3981 3.1746 1.52715 3.1746C1.05864 3.1746 0.678835 2.81927 0.678835 2.38095ZM4.40659 8.5959C4.39526 8.60053 4.39625 8.5992 4.40775 8.59542L4.40659 8.5959ZM10.1799 11.5873C10.1799 10.7107 10.9395 10 11.8766 10C12.8136 10 13.5732 10.7107 13.5732 11.5873C13.5732 12.4639 12.8136 13.1746 11.8766 13.1746C10.9395 13.1746 10.1799 12.464 10.1799 11.5873Z" fill="black"/>
</svg>
